<svg width="22" height="22" viewBox="0 0 22 22" fill="none" xmlns="http://www.w3.org/2000/svg">
<circle cx="11" cy="11" r="11" fill="#9C9C9C"/>
<path d="M9.73684 17.7368C9.73684 18.0719 9.86992 18.3931 10.1068 18.63C10.3437 18.8669 10.665 19 11 19C11.335 19 11.6563 18.8669 11.8932 18.63C12.1301 18.3931 12.2632 18.0719 12.2632 17.7368V12.2632H17.7368C18.0719 12.2632 18.3931 12.1301 18.63 11.8932C18.8669 11.6563 19 11.335 19 11C19 10.665 18.8669 10.3437 18.63 10.1068C18.3931 9.86992 18.0719 9.73684 17.7368 9.73684H12.2632V4.26316C12.2632 3.92815 12.1301 3.60686 11.8932 3.36997C11.6563 3.13308 11.335 3 11 3C10.665 3 10.3437 3.13308 10.1068 3.36997C9.86992 3.60686 9.73684 3.92815 9.73684 4.26316V9.73684H4.26316C3.92815 9.73684 3.60686 9.86992 3.36997 10.1068C3.13308 10.3437 3 10.665 3 11C3 11.335 3.13308 11.6563 3.36997 11.8932C3.60686 12.1301 3.92815 12.2632 4.26316 12.2632H9.73684V17.7368Z" fill="white"/>
</svg>
