<svg width="44" height="42" viewBox="0 0 44 42" fill="none" xmlns="http://www.w3.org/2000/svg">
<path d="M11.0872 17.8782C11.086 15.1904 11.9221 12.569 13.4792 10.3782C15.0363 8.1874 17.2371 6.53604 19.7759 5.65355C19.6776 5.0376 19.7141 4.40765 19.8829 3.80717C20.0516 3.20669 20.3487 2.64997 20.7535 2.17542C21.1583 1.70088 21.6612 1.3198 22.2276 1.0585C22.794 0.797188 23.4103 0.661865 24.0341 0.661865C24.6578 0.661865 25.2741 0.797188 25.8405 1.0585C26.4069 1.3198 26.9098 1.70088 27.3146 2.17542C27.7194 2.64997 28.0165 3.20669 28.1852 3.80717C28.354 4.40765 28.3905 5.0376 28.2922 5.65355C30.8269 6.53966 33.0231 8.19257 34.5762 10.383C36.1292 12.5735 36.9621 15.193 36.9594 17.8782V30.8142L43.4274 35.1263V37.2823H4.61914V35.1263L11.0872 30.8142V17.8782ZM28.3353 37.2383C28.3353 38.3819 27.881 39.4787 27.0723 40.2874C26.2637 41.096 25.1669 41.5503 24.0233 41.5503C22.8797 41.5503 21.7829 41.096 20.9742 40.2874C20.1655 39.4787 19.7112 38.3819 19.7112 37.2383H28.3353Z" fill="#F7C92B"/>
<path d="M6.46804 17.8782C6.46687 15.1904 7.30292 12.569 8.86004 10.3782C10.4172 8.1874 12.618 6.53604 15.1568 5.65355C15.0585 5.0376 15.095 4.40765 15.2637 3.80717C15.4325 3.20669 15.7295 2.64997 16.1343 2.17542C16.5391 1.70088 17.0421 1.3198 17.6085 1.0585C18.1748 0.797188 18.7912 0.661865 19.4149 0.661865C20.0387 0.661865 20.655 0.797188 21.2214 1.0585C21.7877 1.3198 22.2907 1.70088 22.6955 2.17542C23.1003 2.64997 23.3973 3.20669 23.5661 3.80717C23.7349 4.40765 23.7714 5.0376 23.673 5.65355C26.2078 6.53966 28.404 8.19257 29.957 10.383C31.51 12.5735 32.343 15.193 32.3402 17.8782V30.8142L38.8083 35.1263V37.2823H0V35.1263L6.46804 30.8142V17.8782ZM23.7162 37.2383C23.7162 38.3819 23.2619 39.4787 22.4532 40.2874C21.6445 41.096 20.5478 41.5503 19.4041 41.5503C18.2605 41.5503 17.1637 41.096 16.3551 40.2874C15.5464 39.4787 15.0921 38.3819 15.0921 37.2383H23.7162Z" fill="#F7E249"/>
</svg>
