<svg width="44" height="44" viewBox="0 0 44 44" fill="none" xmlns="http://www.w3.org/2000/svg">
<circle cx="22" cy="22" r="22" fill="#FF5A54"/>
<mask id="mask0_637_135" style="mask-type:alpha" maskUnits="userSpaceOnUse" x="0" y="0" width="44" height="44">
<circle cx="22" cy="22" r="22" fill="#FF5A54"/>
</mask>
<g mask="url(#mask0_637_135)">
<path d="M44.8783 23.156L33.6934 12.0173L22.3237 12.8493L10.122 12.3871L13.2187 15.9921L15.8993 21.2148L9.70605 28.5636C14.2817 33.2316 23.4607 42.614 23.5716 42.7988C23.7103 43.0299 26.7607 45.5257 27.7775 46.4963C28.4036 47.094 37.5142 39.1784 41.4119 35.8199L44.8783 23.156Z" fill="#DB3A3C"/>
<path d="M22.232 18.9965L10.1689 11.925H34.2488L22.232 18.9965Z" fill="white"/>
<path d="M9.71265 27.7773V13.2185C13.6566 15.4986 21.5446 20.0681 21.5446 20.1051C22.0992 20.5857 22.4844 20.367 22.6076 20.1975L34.6706 13.2185V27.6387C34.4488 28.7479 33.7154 29.1177 33.3765 29.1639C25.8737 29.1793 10.8774 29.2009 10.9143 29.1639C9.84206 28.942 9.66643 28.1471 9.71265 27.7773Z" fill="white"/>
</g>
</svg>
