<svg width="22" height="22" viewBox="0 0 22 22" fill="none" xmlns="http://www.w3.org/2000/svg">
<path d="M7.91587 1.47255C7.99335 1.51894 8.06093 1.58015 8.11475 1.65266C8.16856 1.72518 8.20757 1.80759 8.22953 1.89518C8.25149 1.98278 8.25598 2.07384 8.24274 2.16317C8.2295 2.2525 8.1988 2.33834 8.15237 2.4158L4.65162 8.24993H17.3484L13.8462 2.4158C13.7525 2.25936 13.7248 2.07209 13.7691 1.89519C13.8135 1.7183 13.9263 1.56627 14.0827 1.47255C14.2392 1.37883 14.4265 1.35109 14.6034 1.39545C14.7802 1.4398 14.9323 1.55261 15.026 1.70905L18.9516 8.24993H20.625C20.9897 8.24993 21.3394 8.39479 21.5973 8.65265C21.8551 8.91052 22 9.26025 22 9.62493V10.9999C22 11.3646 21.8551 11.7143 21.5973 11.9722C21.3394 12.2301 20.9897 12.3749 20.625 12.3749V18.5624C20.625 19.4741 20.2628 20.3484 19.6182 20.9931C18.9735 21.6378 18.0992 21.9999 17.1875 21.9999H4.8125C3.90082 21.9999 3.02648 21.6378 2.38182 20.9931C1.73716 20.3484 1.375 19.4741 1.375 18.5624V12.3749C1.01033 12.3749 0.660591 12.2301 0.402728 11.9722C0.144866 11.7143 0 11.3646 0 10.9999V9.62493C0 9.26025 0.144866 8.91052 0.402728 8.65265C0.660591 8.39479 1.01033 8.24993 1.375 8.24993H3.04838L6.97125 1.70905C7.01764 1.63157 7.07885 1.564 7.15136 1.51018C7.22388 1.45636 7.30629 1.41736 7.39388 1.3954C7.48147 1.37344 7.57254 1.36895 7.66187 1.38218C7.75119 1.39542 7.83842 1.42613 7.91587 1.47255ZM2.75 12.3749V18.5624C2.75 19.1094 2.9673 19.634 3.35409 20.0208C3.74089 20.4076 4.26549 20.6249 4.8125 20.6249H17.1875C17.7345 20.6249 18.2591 20.4076 18.6459 20.0208C19.0327 19.634 19.25 19.1094 19.25 18.5624V12.3749H2.75ZM1.375 9.62493V10.9999H20.625V9.62493H1.375ZM5.5 13.7499C5.68234 13.7499 5.8572 13.8224 5.98614 13.9513C6.11507 14.0802 6.1875 14.2551 6.1875 14.4374V18.5624C6.1875 18.7448 6.11507 18.9196 5.98614 19.0486C5.8572 19.1775 5.68234 19.2499 5.5 19.2499C5.31766 19.2499 5.1428 19.1775 5.01386 19.0486C4.88493 18.9196 4.8125 18.7448 4.8125 18.5624V14.4374C4.8125 14.2551 4.88493 14.0802 5.01386 13.9513C5.1428 13.8224 5.31766 13.7499 5.5 13.7499ZM8.25 13.7499C8.43234 13.7499 8.6072 13.8224 8.73614 13.9513C8.86507 14.0802 8.9375 14.2551 8.9375 14.4374V18.5624C8.9375 18.7448 8.86507 18.9196 8.73614 19.0486C8.6072 19.1775 8.43234 19.2499 8.25 19.2499C8.06766 19.2499 7.8928 19.1775 7.76386 19.0486C7.63493 18.9196 7.5625 18.7448 7.5625 18.5624V14.4374C7.5625 14.2551 7.63493 14.0802 7.76386 13.9513C7.8928 13.8224 8.06766 13.7499 8.25 13.7499ZM11 13.7499C11.1823 13.7499 11.3572 13.8224 11.4861 13.9513C11.6151 14.0802 11.6875 14.2551 11.6875 14.4374V18.5624C11.6875 18.7448 11.6151 18.9196 11.4861 19.0486C11.3572 19.1775 11.1823 19.2499 11 19.2499C10.8177 19.2499 10.6428 19.1775 10.5139 19.0486C10.3849 18.9196 10.3125 18.7448 10.3125 18.5624V14.4374C10.3125 14.2551 10.3849 14.0802 10.5139 13.9513C10.6428 13.8224 10.8177 13.7499 11 13.7499ZM13.75 13.7499C13.9323 13.7499 14.1072 13.8224 14.2361 13.9513C14.3651 14.0802 14.4375 14.2551 14.4375 14.4374V18.5624C14.4375 18.7448 14.3651 18.9196 14.2361 19.0486C14.1072 19.1775 13.9323 19.2499 13.75 19.2499C13.5677 19.2499 13.3928 19.1775 13.2639 19.0486C13.1349 18.9196 13.0625 18.7448 13.0625 18.5624V14.4374C13.0625 14.2551 13.1349 14.0802 13.2639 13.9513C13.3928 13.8224 13.5677 13.7499 13.75 13.7499ZM16.5 13.7499C16.6823 13.7499 16.8572 13.8224 16.9861 13.9513C17.1151 14.0802 17.1875 14.2551 17.1875 14.4374V18.5624C17.1875 18.7448 17.1151 18.9196 16.9861 19.0486C16.8572 19.1775 16.6823 19.2499 16.5 19.2499C16.3177 19.2499 16.1428 19.1775 16.0139 19.0486C15.8849 18.9196 15.8125 18.7448 15.8125 18.5624V14.4374C15.8125 14.2551 15.8849 14.0802 16.0139 13.9513C16.1428 13.8224 16.3177 13.7499 16.5 13.7499Z" fill="#9C9C9C"/>
</svg>
