<svg width="22" height="22" viewBox="0 0 22 22" fill="none" xmlns="http://www.w3.org/2000/svg">
<path d="M8.69842 7.00383L9.31084 9.2808C9.88759 11.4258 10.1754 12.4989 11.0232 12.9865C11.8711 13.4754 12.9473 13.187 15.0997 12.6125L17.3829 12.0014C19.5353 11.427 20.6115 11.1398 21.1014 10.2952C21.5913 9.44947 21.3036 8.37637 20.7256 6.2314L20.1144 3.95565C19.5377 1.80946 19.2487 0.736362 18.402 0.248702C17.5529 -0.24018 16.4767 0.0482602 14.3244 0.623919L12.0412 1.23258C9.88877 1.80701 8.81258 2.09545 8.32383 2.94122C7.8339 3.78577 8.12168 4.85886 8.69842 7.00383Z" fill="#9C9C9C"/>
<path d="M0.0323309 2.74731C0.0636614 2.63123 0.116946 2.52263 0.189138 2.42773C0.261331 2.33283 0.351015 2.25349 0.453063 2.19424C0.555111 2.13498 0.667521 2.09699 0.783867 2.08241C0.900213 2.06784 1.01821 2.07698 1.13112 2.10932L3.15627 2.6862C3.69298 2.83601 4.18278 3.12619 4.57791 3.52845C4.97305 3.93071 5.26004 4.43132 5.41092 4.9815L7.96881 14.4976L8.1567 15.1649C8.90944 15.4546 9.55635 15.996 9.96661 16.7147L10.3353 16.5973L20.8831 13.7802C20.9965 13.7498 21.1146 13.7427 21.2306 13.7593C21.3467 13.7759 21.4584 13.8158 21.5594 13.8767C21.6605 13.9377 21.7488 14.0185 21.8195 14.1145C21.8902 14.2105 21.9417 14.32 21.9712 14.4365C22.0007 14.553 22.0076 14.6744 21.9915 14.7936C21.9754 14.9129 21.9366 15.0277 21.8773 15.1316C21.818 15.2354 21.7394 15.3262 21.6459 15.3989C21.5525 15.4715 21.446 15.5245 21.3326 15.5548L10.8228 18.361L10.4328 18.4856C10.4244 20.0379 9.38154 21.4568 7.80471 21.8785C5.91275 22.3845 3.96846 21.2649 3.46188 19.3803C2.9553 17.4944 4.07787 15.556 5.96864 15.0513C6.06181 15.0266 6.15581 15.0054 6.25047 14.9877L3.69139 5.46916C3.6225 5.22461 3.49321 5.00255 3.31608 4.82457C3.13896 4.6466 2.92003 4.51876 2.6806 4.45351L0.654264 3.8754C0.541345 3.84332 0.435682 3.78869 0.34331 3.71463C0.250938 3.64058 0.173667 3.54854 0.115912 3.44378C0.0581568 3.33902 0.0210486 3.22359 0.00670759 3.10409C-0.00763346 2.98459 0.00107346 2.86335 0.0323309 2.74731Z" fill="#9C9C9C"/>
</svg>
