<svg width="28" height="22" viewBox="0 0 28 22" fill="none" xmlns="http://www.w3.org/2000/svg">
<g clip-path="url(#clip0_2775_1535)">
<path d="M4.125 9.625C5.6418 9.625 6.875 8.3918 6.875 6.875C6.875 5.3582 5.6418 4.125 4.125 4.125C2.6082 4.125 1.375 5.3582 1.375 6.875C1.375 8.3918 2.6082 9.625 4.125 9.625ZM23.375 9.625C24.8918 9.625 26.125 8.3918 26.125 6.875C26.125 5.3582 24.8918 4.125 23.375 4.125C21.8582 4.125 20.625 5.3582 20.625 6.875C20.625 8.3918 21.8582 9.625 23.375 9.625ZM24.75 11H22C21.2437 11 20.5605 11.3051 20.0621 11.7992C21.7937 12.7488 23.0227 14.4633 23.2891 16.5H26.125C26.8855 16.5 27.5 15.8855 27.5 15.125V13.75C27.5 12.2332 26.2668 11 24.75 11ZM13.75 11C16.4098 11 18.5625 8.84727 18.5625 6.1875C18.5625 3.52773 16.4098 1.375 13.75 1.375C11.0902 1.375 8.9375 3.52773 8.9375 6.1875C8.9375 8.84727 11.0902 11 13.75 11ZM17.05 12.375H16.6934C15.7996 12.8047 14.807 13.0625 13.75 13.0625C12.693 13.0625 11.7047 12.8047 10.8066 12.375H10.45C7.71719 12.375 5.5 14.5922 5.5 17.325V18.5625C5.5 19.7012 6.42383 20.625 7.5625 20.625H19.9375C21.0762 20.625 22 19.7012 22 18.5625V17.325C22 14.5922 19.7828 12.375 17.05 12.375ZM7.43789 11.7992C6.93945 11.3051 6.25625 11 5.5 11H2.75C1.2332 11 0 12.2332 0 13.75V15.125C0 15.8855 0.614453 16.5 1.375 16.5H4.20664C4.47734 14.4633 5.70625 12.7488 7.43789 11.7992Z" fill="#9C9C9C"/>
</g>
<defs>
<clipPath id="clip0_2775_1535">
<rect width="27.5" height="22" fill="white"/>
</clipPath>
</defs>
</svg>
