<svg width="10" height="16" viewBox="0 0 10 16" fill="none" xmlns="http://www.w3.org/2000/svg">
<path d="M2.52364 0.303857L9.34756 7.10753C9.42856 7.18852 9.48606 7.27627 9.52008 7.37076C9.5541 7.46526 9.57084 7.5665 9.5703 7.6745C9.5703 7.78249 9.55329 7.88374 9.51927 7.97823C9.48525 8.07273 9.42802 8.16048 9.34756 8.24147L2.52364 15.0654C2.33465 15.2544 2.09841 15.3489 1.81493 15.3489C1.53144 15.3489 1.28845 15.2476 1.08596 15.0451C0.883472 14.8427 0.782227 14.6064 0.782226 14.3364C0.782226 14.0664 0.883472 13.8302 1.08596 13.6277L7.03917 7.6745L1.08596 1.72129C0.89697 1.5323 0.802474 1.2993 0.802474 1.02229C0.802474 0.745286 0.903719 0.505807 1.10621 0.303857C1.3087 0.101367 1.54494 0.000121405 1.81492 0.000121381C2.08491 0.000121358 2.32115 0.101367 2.52364 0.303857Z" fill="white"/>
</svg>
