<svg width="22" height="22" viewBox="0 0 22 22" fill="none" xmlns="http://www.w3.org/2000/svg">
<path d="M11.0042 8.00469C10.228 8.00469 9.50114 8.28991 8.95078 8.81118C8.40303 9.33245 8.0993 10.0209 8.0993 10.7561C8.0993 11.4913 8.40303 12.1798 8.95078 12.701C9.50114 13.2198 10.228 13.5075 11.0042 13.5075C11.7804 13.5075 12.5073 13.2198 13.0577 12.701C13.6054 12.1798 13.9092 11.4913 13.9092 10.7561C13.9092 10.0209 13.6054 9.33245 13.0577 8.81118C12.7889 8.55462 12.4689 8.35121 12.1164 8.21276C11.7639 8.07431 11.3858 8.00358 11.0042 8.00469ZM21.7075 13.7952L20.0098 12.4207C20.0902 11.9536 20.1318 11.4765 20.1318 11.002C20.1318 10.5274 20.0902 10.048 20.0098 9.58325L21.7075 8.20877C21.8358 8.10478 21.9276 7.96627 21.9707 7.81167C22.0138 7.65707 22.0063 7.49369 21.949 7.34327L21.9256 7.27934C21.4584 6.04179 20.7582 4.89466 19.8592 3.89354L19.8125 3.84191C19.7033 3.72032 19.5578 3.63292 19.3951 3.59122C19.2325 3.54953 19.0603 3.55549 18.9013 3.60832L16.7933 4.31892C16.0145 3.71405 15.1474 3.23704 14.2077 2.9051L13.8001 0.817558C13.7694 0.660297 13.6888 0.515621 13.5692 0.402749C13.4496 0.289878 13.2965 0.214155 13.1303 0.185641L13.0603 0.173347C11.7103 -0.0577823 10.2877 -0.0577823 8.9378 0.173347L8.86771 0.185641C8.70156 0.214155 8.5485 0.289878 8.42887 0.402749C8.30924 0.515621 8.22869 0.660297 8.19794 0.817558L7.78778 2.91493C6.85692 3.24952 5.98977 3.72537 5.22033 4.32384L3.0968 3.60832C2.93784 3.55507 2.76553 3.54889 2.60277 3.59061C2.44001 3.63234 2.29451 3.71998 2.1856 3.84191L2.13887 3.89354C1.24142 4.89573 0.54148 6.04257 0.0724573 7.27934L0.0490932 7.34327C-0.0677269 7.65062 0.0283253 7.99485 0.290522 8.20877L2.00907 9.59801C1.9286 10.0603 1.88966 10.5324 1.88966 10.9995C1.88966 11.4716 1.9286 11.9437 2.00907 12.4011L0.295713 13.7903C0.16746 13.8943 0.075667 14.0328 0.032541 14.1874C-0.010585 14.342 -0.00300088 14.5054 0.0542851 14.6558L0.0776492 14.7197C0.547526 15.9565 1.24066 17.0999 2.14407 18.1055L2.1908 18.1572C2.29997 18.2787 2.44547 18.3661 2.60813 18.4078C2.7708 18.4495 2.94298 18.4436 3.10199 18.3907L5.22552 17.6752C5.99913 18.2776 6.861 18.7547 7.79297 19.0841L8.20314 21.1815C8.23389 21.3388 8.31443 21.4834 8.43406 21.5963C8.55369 21.7092 8.70675 21.7849 8.8729 21.8134L8.943 21.8257C10.3062 22.0581 11.7022 22.0581 13.0654 21.8257L13.1355 21.8134C13.3017 21.7849 13.4548 21.7092 13.5744 21.5963C13.694 21.4834 13.7746 21.3388 13.8053 21.1815L14.2129 19.094C15.1526 18.7596 16.0197 18.285 16.7985 17.6801L18.9065 18.3907C19.0654 18.444 19.2377 18.4502 19.4005 18.4085C19.5632 18.3667 19.7087 18.2791 19.8177 18.1572L19.8644 18.1055C20.7678 17.095 21.4609 15.9565 21.9308 14.7197L21.9542 14.6558C22.0658 14.3509 21.9697 14.0091 21.7075 13.7952ZM11.0042 15.0787C8.4835 15.0787 6.44045 13.1436 6.44045 10.7561C6.44045 8.3686 8.4835 6.4335 11.0042 6.4335C13.5249 6.4335 15.568 8.3686 15.568 10.7561C15.568 13.1436 13.5249 15.0787 11.0042 15.0787Z" fill="#9C9C9C"/>
</svg>
