<svg width="24" height="21" viewBox="0 0 24 21" fill="none" xmlns="http://www.w3.org/2000/svg">
<path d="M8.16667 12.8333C8.811 12.8333 9.33333 12.311 9.33333 11.6667C9.33333 11.0223 8.811 10.5 8.16667 10.5C7.52233 10.5 7 11.0223 7 11.6667C7 12.311 7.52233 12.8333 8.16667 12.8333Z" fill="#9C9C9C"/>
<path d="M15.1667 12.8333C15.811 12.8333 16.3333 12.311 16.3333 11.6667C16.3333 11.0223 15.811 10.5 15.1667 10.5C14.5223 10.5 14 11.0223 14 11.6667C14 12.311 14.5223 12.8333 15.1667 12.8333Z" fill="#9C9C9C"/>
<path d="M18.6656 9.36833C18.3874 7.72816 17.5379 6.23929 16.2674 5.16528C14.997 4.09126 13.3875 3.50137 11.7239 3.5C8.18891 3.5 4.38557 6.42833 4.68891 11.025C6.12756 10.4363 7.39819 9.50073 8.38751 8.30175C9.37682 7.10276 10.0541 5.6776 10.3589 4.15333C11.8872 7.22167 15.0256 9.33333 18.6656 9.36833Z" fill="#9C9C9C"/>
<path d="M22.155 10.5C22.0267 4.235 17.1267 0 11.6667 0C6.28833 0 1.34167 4.11833 1.17833 10.5H0V17.5H3.5V10.7217C3.5 6.25333 6.94167 2.345 11.41 2.21667C12.5036 2.18341 13.5927 2.37001 14.6128 2.7654C15.633 3.16079 16.5634 3.75694 17.3489 4.51851C18.1344 5.28009 18.759 6.19159 19.1858 7.199C19.6125 8.20642 19.8327 9.28925 19.8333 10.3833V18.6667H10.5V21H22.1667V17.5H23.3333V10.5H22.155Z" fill="#9C9C9C"/>
</svg>
