<svg width="28" height="20" viewBox="0 0 28 20" fill="none" xmlns="http://www.w3.org/2000/svg">
<path d="M4.125 8.625C5.6418 8.625 6.875 7.3918 6.875 5.875C6.875 4.3582 5.6418 3.125 4.125 3.125C2.6082 3.125 1.375 4.3582 1.375 5.875C1.375 7.3918 2.6082 8.625 4.125 8.625ZM23.375 8.625C24.8918 8.625 26.125 7.3918 26.125 5.875C26.125 4.3582 24.8918 3.125 23.375 3.125C21.8582 3.125 20.625 4.3582 20.625 5.875C20.625 7.3918 21.8582 8.625 23.375 8.625ZM24.75 10H22C21.2437 10 20.5605 10.3051 20.0621 10.7992C21.7937 11.7488 23.0227 13.4633 23.2891 15.5H26.125C26.8855 15.5 27.5 14.8855 27.5 14.125V12.75C27.5 11.2332 26.2668 10 24.75 10ZM13.75 10C16.4098 10 18.5625 7.84727 18.5625 5.1875C18.5625 2.52773 16.4098 0.375 13.75 0.375C11.0902 0.375 8.9375 2.52773 8.9375 5.1875C8.9375 7.84727 11.0902 10 13.75 10ZM17.05 11.375H16.6934C15.7996 11.8047 14.807 12.0625 13.75 12.0625C12.693 12.0625 11.7047 11.8047 10.8066 11.375H10.45C7.71719 11.375 5.5 13.5922 5.5 16.325V17.5625C5.5 18.7012 6.42383 19.625 7.5625 19.625H19.9375C21.0762 19.625 22 18.7012 22 17.5625V16.325C22 13.5922 19.7828 11.375 17.05 11.375ZM7.43789 10.7992C6.93945 10.3051 6.25625 10 5.5 10H2.75C1.2332 10 0 11.2332 0 12.75V14.125C0 14.8855 0.614453 15.5 1.375 15.5H4.20664C4.47734 13.4633 5.70625 11.7488 7.43789 10.7992Z" fill="white"/>
</svg>
