<svg width="24" height="22" viewBox="0 0 24 22" fill="none" xmlns="http://www.w3.org/2000/svg">
<path d="M10.8 19.2225L4.8 16.06C4.42 15.8583 4.1248 15.5925 3.9144 15.2625C3.704 14.9325 3.5992 14.5658 3.6 14.1625V7.8375C3.6 7.43417 3.7052 7.0675 3.9156 6.7375C4.126 6.4075 4.4208 6.14167 4.8 5.94L10.8 2.7775C11.18 2.57583 11.58 2.475 12 2.475C12.42 2.475 12.82 2.57583 13.2 2.7775L19.2 5.94C19.58 6.14167 19.8752 6.4075 20.0856 6.7375C20.296 7.0675 20.4008 7.43417 20.4 7.8375V14.1625C20.4 14.5658 20.2948 14.9325 20.0844 15.2625C19.874 15.5925 19.5792 15.8583 19.2 16.06L13.2 19.2225C12.82 19.4242 12.42 19.525 12 19.525C11.58 19.525 11.18 19.4242 10.8 19.2225ZM10.8 16.6925V11.6325L6 9.075V14.1625L10.8 16.6925ZM13.2 16.6925L18 14.1625V9.075L13.2 11.6325V16.6925ZM2.03735e-06 5.5V2.2C2.03735e-06 1.595 0.235202 1.0769 0.705602 0.645702C1.176 0.214502 1.7408 -0.000731466 2.4 1.86757e-06H6V2.2H2.4V5.5H2.03735e-06ZM6 22H2.4C1.74 22 1.1748 21.7844 0.704402 21.3532C0.234002 20.922 -0.000797963 20.4043 2.03735e-06 19.8V16.5H2.4V19.8H6V22ZM18 22V19.8H21.6V16.5H24V19.8C24 20.405 23.7648 20.9231 23.2944 21.3543C22.824 21.7855 22.2592 22.0007 21.6 22H18ZM21.6 5.5V2.2H18V1.86757e-06H21.6C22.26 1.86757e-06 22.8252 0.215602 23.2956 0.646802C23.766 1.078 24.0008 1.59573 24 2.2V5.5H21.6ZM12 9.735L16.74 7.1775L12 4.675L7.26 7.1775L12 9.735Z" fill="#9C9C9C"/>
</svg>
