<svg width="16" height="10" viewBox="0 0 16 10" fill="none" xmlns="http://www.w3.org/2000/svg">
<path d="M15.045 2.02193L8.24135 8.84585C8.16035 8.92685 8.07261 8.98435 7.97811 9.01837C7.88362 9.05239 7.78237 9.06913 7.67438 9.06859C7.56638 9.06859 7.46514 9.05158 7.37064 9.01756C7.27615 8.98354 7.1884 8.92631 7.10741 8.84585L0.283486 2.02193C0.094495 1.83294 -3.26607e-07 1.5967 -3.38999e-07 1.31322C-3.5139e-07 1.02973 0.101245 0.786743 0.303735 0.584253C0.506225 0.381763 0.742464 0.280518 1.01245 0.280518C1.28244 0.280518 1.51868 0.381763 1.72117 0.584253L7.67438 6.53746L13.6276 0.584253C13.8166 0.395262 14.0496 0.300766 14.3266 0.300766C14.6036 0.300766 14.8431 0.402011 15.045 0.604501C15.2475 0.806991 15.3488 1.04323 15.3488 1.31322C15.3488 1.5832 15.2475 1.81944 15.045 2.02193Z" fill="white"/>
</svg>
