<svg width="17" height="18" viewBox="0 0 17 18" fill="none" xmlns="http://www.w3.org/2000/svg">
<path d="M7.36607 16.8806L0.294643 9.8092C0.1875 9.70206 0.111428 9.58599 0.0664284 9.46099C0.0221426 9.33599 0 9.20206 0 9.05921C0 8.91635 0.0221426 8.78242 0.0664284 8.65742C0.111428 8.53242 0.1875 8.41635 0.294643 8.30921L7.36607 1.23778C7.5625 1.04135 7.80786 0.938491 8.10214 0.929205C8.39714 0.920634 8.65179 1.02349 8.86607 1.23778C9.08036 1.43421 9.19214 1.67956 9.20143 1.97385C9.21 2.26885 9.10714 2.52349 8.89286 2.73778L3.64286 7.98778H15.6161C15.9196 7.98778 16.1743 8.09028 16.38 8.29528C16.585 8.50099 16.6875 8.75563 16.6875 9.05921C16.6875 9.36278 16.585 9.61706 16.38 9.82206C16.1743 10.0278 15.9196 10.1306 15.6161 10.1306H3.64286L8.89286 15.3806C9.08929 15.5771 9.19214 15.8271 9.20143 16.1306C9.21 16.4342 9.10714 16.6842 8.89286 16.8806C8.69643 17.0949 8.44643 17.2021 8.14286 17.2021C7.83929 17.2021 7.58036 17.0949 7.36607 16.8806Z" fill="white"/>
</svg>
