<svg width="33" height="35" viewBox="0 0 33 35" fill="none" xmlns="http://www.w3.org/2000/svg">
<path d="M30.2772 8.02865L24.6194 4.47589L15.4077 19.1469L21.062 22.6962L30.2772 8.02865ZM14.5449 23.6582L14.42 26.9915L17.3703 25.4305L20.114 23.9828L14.6582 20.555L14.5449 23.6582ZM31.7868 2.63121L28.8295 0.77135C28.4718 0.546954 28.0397 0.473784 27.6281 0.567927C27.2165 0.66207 26.8591 0.915819 26.6346 1.27338L25.4671 3.1274L31.1214 6.679L32.2889 4.82731C32.7559 4.0801 32.5341 3.09588 31.7868 2.62887V2.63121ZM27.1576 30.4415C27.1576 30.7626 26.8949 31.0253 26.5739 31.0253H4.391C4.23618 31.0253 4.0877 30.9638 3.97822 30.8543C3.86875 30.7448 3.80725 30.5963 3.80725 30.4415V8.25865C3.80725 8.10383 3.86875 7.95535 3.97822 7.84587C4.0877 7.73639 4.23618 7.67489 4.391 7.67489H19.8536L22.0532 4.17233H4.391C2.13769 4.17233 0.304688 6.00534 0.304688 8.25865V30.4415C0.304688 32.6948 2.13769 34.5278 4.391 34.5278H26.5739C28.8272 34.5278 30.6602 32.6948 30.6602 30.4415V11.8044L27.1576 17.3805V30.445V30.4415Z" fill="url(#paint0_linear_2915_1380)"/>
<defs>
<linearGradient id="paint0_linear_2915_1380" x1="16.4189" y1="0.527832" x2="16.4189" y2="34.5278" gradientUnits="userSpaceOnUse">
<stop stop-color="#FFB74F"/>
<stop offset="1" stop-color="#FF9700"/>
</linearGradient>
</defs>
</svg>
