<svg width="122" height="122" viewBox="0 0 122 122" fill="none" xmlns="http://www.w3.org/2000/svg">
<circle cx="61" cy="61" r="61" fill="#D9D9D9"/>
<path fill-rule="evenodd" clip-rule="evenodd" d="M43.6667 39.3333C43.6667 34.7362 45.4929 30.3274 48.7435 27.0768C51.9941 23.8262 56.4029 22 61 22C65.5971 22 70.0059 23.8262 73.2565 27.0768C76.5072 30.3274 78.3333 34.7362 78.3333 39.3333C78.3333 43.9304 76.5072 48.3392 73.2565 51.5899C70.0059 54.8405 65.5971 56.6667 61 56.6667C56.4029 56.6667 51.9941 54.8405 48.7435 51.5899C45.4929 48.3392 43.6667 43.9304 43.6667 39.3333ZM43.6667 65.3333C37.9203 65.3333 32.4093 67.6161 28.346 71.6794C24.2827 75.7426 22 81.2536 22 87C22 90.4478 23.3696 93.7544 25.8076 96.1924C28.2456 98.6304 31.5522 100 35 100H87C90.4478 100 93.7544 98.6304 96.1924 96.1924C98.6304 93.7544 100 90.4478 100 87C100 81.2536 97.7173 75.7426 93.654 71.6794C89.5907 67.6161 84.0797 65.3333 78.3333 65.3333H43.6667Z" fill="white"/>
</svg>
