<svg width="13" height="10" viewBox="0 0 13 10" fill="none" xmlns="http://www.w3.org/2000/svg">
<path d="M12.9738 4.61933C12.4641 3.30098 11.5793 2.16087 10.4288 1.3399C9.27818 0.518941 7.91226 0.0531149 6.49982 0C5.08737 0.0531149 3.72145 0.518941 2.57087 1.3399C1.42029 2.16087 0.535485 3.30098 0.0258156 4.61933C-0.00860521 4.71454 -0.00860521 4.81879 0.0258156 4.914C0.535485 6.23235 1.42029 7.37247 2.57087 8.19343C3.72145 9.01439 5.08737 9.48022 6.49982 9.53333C7.91226 9.48022 9.27818 9.01439 10.4288 8.19343C11.5793 7.37247 12.4641 6.23235 12.9738 4.914C13.0082 4.81879 13.0082 4.71454 12.9738 4.61933ZM6.49982 8.66667C4.20315 8.66667 1.77648 6.96367 0.896816 4.76667C1.77648 2.56967 4.20315 0.866667 6.49982 0.866667C8.79648 0.866667 11.2231 2.56967 12.1028 4.76667C11.2231 6.96367 8.79648 8.66667 6.49982 8.66667Z" fill="white"/>
<path d="M6.50039 2.16675C5.98616 2.16675 5.48348 2.31924 5.05591 2.60493C4.62834 2.89062 4.29509 3.29668 4.09831 3.77177C3.90152 4.24686 3.85003 4.76963 3.95035 5.27398C4.05067 5.77833 4.2983 6.24161 4.66191 6.60523C5.02553 6.96884 5.48881 7.21647 5.99316 7.31679C6.49751 7.41711 7.02028 7.36562 7.49537 7.16884C7.97046 6.97205 8.37652 6.6388 8.66221 6.21123C8.9479 5.78366 9.10039 5.28098 9.10039 4.76675C9.10039 4.07719 8.82646 3.41587 8.33887 2.92827C7.85127 2.44068 7.18995 2.16675 6.50039 2.16675ZM6.50039 6.50008C6.15757 6.50008 5.82245 6.39842 5.5374 6.20796C5.25236 6.0175 5.03019 5.74679 4.899 5.43007C4.76781 5.11334 4.73348 4.76483 4.80036 4.42859C4.86724 4.09236 5.03233 3.78351 5.27474 3.5411C5.51715 3.29869 5.826 3.1336 6.16224 3.06672C6.49847 2.99984 6.84698 3.03416 7.16371 3.16536C7.48043 3.29655 7.75114 3.51871 7.94161 3.80376C8.13207 4.08881 8.23372 4.42393 8.23372 4.76675C8.23372 5.22646 8.05111 5.66734 7.72604 5.9924C7.40098 6.31746 6.9601 6.50008 6.50039 6.50008Z" fill="white"/>
</svg>
