<svg width="20" height="21" viewBox="0 0 20 21" fill="none" xmlns="http://www.w3.org/2000/svg">
<path d="M8.42105 18.9211C8.42105 19.3398 8.58741 19.7414 8.88352 20.0375C9.17963 20.3336 9.58124 20.5 10 20.5C10.4188 20.5 10.8204 20.3336 11.1165 20.0375C11.4126 19.7414 11.5789 19.3398 11.5789 18.9211V12.0789H18.4211C18.8398 12.0789 19.2414 11.9126 19.5375 11.6165C19.8336 11.3204 20 10.9188 20 10.5C20 10.0812 19.8336 9.67963 19.5375 9.38352C19.2414 9.08741 18.8398 8.92105 18.4211 8.92105H11.5789V2.07895C11.5789 1.66018 11.4126 1.25857 11.1165 0.962463C10.8204 0.666353 10.4188 0.5 10 0.5C9.58124 0.5 9.17963 0.666353 8.88352 0.962463C8.58741 1.25857 8.42105 1.66018 8.42105 2.07895V8.92105H1.57895C1.16018 8.92105 0.758573 9.08741 0.462463 9.38352C0.166353 9.67963 0 10.0812 0 10.5C0 10.9188 0.166353 11.3204 0.462463 11.6165C0.758573 11.9126 1.16018 12.0789 1.57895 12.0789H8.42105V18.9211Z" fill="white"/>
</svg>
