<svg width="86" height="86" viewBox="0 0 86 86" fill="none" xmlns="http://www.w3.org/2000/svg">
<circle cx="43" cy="43" r="43" fill="#D9D9D9"/>
<path fill-rule="evenodd" clip-rule="evenodd" d="M30.781 27.7269C30.781 24.4863 32.0683 21.3785 34.3598 19.087C36.6512 16.7956 39.759 15.5083 42.9996 15.5083C46.2402 15.5083 49.348 16.7956 51.6395 19.087C53.9309 21.3785 55.2182 24.4863 55.2182 27.7269C55.2182 30.9674 53.9309 34.0753 51.6395 36.3667C49.348 38.6581 46.2402 39.9455 42.9996 39.9455C39.759 39.9455 36.6512 38.6581 34.3598 36.3667C32.0683 34.0753 30.781 30.9674 30.781 27.7269ZM30.781 46.0547C26.7303 46.0547 22.8455 47.6639 19.9812 50.5282C17.117 53.3925 15.5078 57.2773 15.5078 61.328C15.5078 63.7584 16.4733 66.0893 18.1919 67.8079C19.9104 69.5264 22.2413 70.4919 24.6717 70.4919H61.3275C63.7579 70.4919 66.0888 69.5264 67.8074 67.8079C69.5259 66.0893 70.4914 63.7584 70.4914 61.328C70.4914 57.2773 68.8823 53.3925 66.018 50.5282C63.1537 47.6639 59.2689 46.0547 55.2182 46.0547H30.781Z" fill="white"/>
</svg>
