<svg width="22" height="22" viewBox="0 0 22 22" fill="none" xmlns="http://www.w3.org/2000/svg">
<rect width="22" height="22" rx="5" fill="#9C9C9C"/>
<path d="M7.19701 13.3927H6.2028C6.17445 13.2296 6.12216 13.0852 6.04596 12.9594C5.96975 12.8318 5.87494 12.7237 5.76152 12.635C5.6481 12.5464 5.51873 12.48 5.37341 12.4357C5.22986 12.3896 5.07479 12.3666 4.9082 12.3666C4.61224 12.3666 4.34995 12.441 4.12134 12.5899C3.89272 12.7369 3.71373 12.9532 3.58436 13.2385C3.45499 13.522 3.3903 13.8685 3.3903 14.2779C3.3903 14.6944 3.45499 15.0453 3.58436 15.3306C3.7155 15.6141 3.89449 15.8286 4.12134 15.9739C4.34995 16.1174 4.61135 16.1892 4.90554 16.1892C5.06858 16.1892 5.221 16.1679 5.36277 16.1254C5.50632 16.0811 5.63481 16.0164 5.74823 15.9314C5.86342 15.8463 5.96001 15.7417 6.03798 15.6177C6.11773 15.4936 6.17267 15.3518 6.2028 15.1923L7.19701 15.1977C7.15979 15.4564 7.07916 15.6992 6.9551 15.926C6.83282 16.1529 6.67244 16.3531 6.47395 16.5268C6.27546 16.6987 6.0433 16.8334 5.77747 16.9309C5.51164 17.0266 5.21656 17.0744 4.89225 17.0744C4.41375 17.0744 3.98665 16.9637 3.61094 16.7421C3.23523 16.5206 2.93927 16.2007 2.72306 15.7825C2.50685 15.3642 2.39875 14.8627 2.39875 14.2779C2.39875 13.6913 2.50774 13.1897 2.72572 12.7733C2.9437 12.355 3.24055 12.0351 3.61626 11.8136C3.99197 11.5921 4.4173 11.4813 4.89225 11.4813C5.1953 11.4813 5.47708 11.5239 5.73759 11.6089C5.99811 11.694 6.23027 11.8189 6.43407 11.9838C6.63788 12.1468 6.80535 12.3471 6.9365 12.5845C7.06941 12.8202 7.15625 13.0896 7.19701 13.3927ZM8.17503 11.5558H9.38191L10.9982 15.5007H11.062L12.6782 11.5558H13.8851V17H12.9387V13.2597H12.8882L11.3836 16.9841H10.6765L9.1719 13.2518H9.12139V17H8.17503V11.5558ZM17.9926 13.0524C17.9678 12.8202 17.8633 12.6395 17.6789 12.5101C17.4964 12.3807 17.2589 12.316 16.9665 12.316C16.7609 12.316 16.5846 12.3471 16.4375 12.4091C16.2904 12.4711 16.1779 12.5553 16.0999 12.6616C16.0219 12.768 15.9821 12.8894 15.9803 13.0258C15.9803 13.1392 16.006 13.2376 16.0574 13.3209C16.1105 13.4042 16.1823 13.4751 16.2727 13.5336C16.3631 13.5903 16.4632 13.6381 16.5731 13.6771C16.683 13.7161 16.7937 13.7489 16.9054 13.7755L17.4158 13.9031C17.6213 13.9509 17.8189 14.0156 18.0086 14.0971C18.2 14.1786 18.371 14.2814 18.5216 14.4055C18.674 14.5295 18.7946 14.6793 18.8832 14.8547C18.9718 15.0302 19.0161 15.2358 19.0161 15.4715C19.0161 15.7905 18.9346 16.0714 18.7715 16.3142C18.6085 16.5552 18.3728 16.7439 18.0644 16.8804C17.7578 17.0151 17.3865 17.0824 16.9506 17.0824C16.527 17.0824 16.1593 17.0168 15.8474 16.8857C15.5372 16.7545 15.2944 16.5631 15.119 16.3115C14.9453 16.0598 14.8514 15.7532 14.8372 15.3917H15.8075C15.8217 15.5813 15.8801 15.7391 15.9829 15.8649C16.0857 15.9907 16.2195 16.0847 16.3843 16.1467C16.5509 16.2087 16.737 16.2397 16.9426 16.2397C17.157 16.2397 17.3449 16.2078 17.5062 16.144C17.6692 16.0784 17.7968 15.9881 17.889 15.8729C17.9811 15.7559 18.0281 15.6194 18.0298 15.4635C18.0281 15.3217 17.9864 15.2047 17.9049 15.1126C17.8234 15.0187 17.7091 14.9407 17.562 14.8787C17.4167 14.8149 17.2465 14.7582 17.0516 14.7085L16.4322 14.549C15.9838 14.4338 15.6294 14.2593 15.3689 14.0253C15.1101 13.7896 14.9808 13.4768 14.9808 13.087C14.9808 12.7662 15.0676 12.4853 15.2413 12.2443C15.4167 12.0032 15.6551 11.8163 15.9564 11.6834C16.2576 11.5487 16.5988 11.4813 16.9798 11.4813C17.3661 11.4813 17.7046 11.5487 17.9953 11.6834C18.2877 11.8163 18.5172 12.0015 18.6838 12.239C18.8504 12.4747 18.9363 12.7458 18.9416 13.0524H17.9926Z" fill="white"/>
<circle cx="11" cy="6" r="4" fill="white"/>
<path d="M10.6212 8.02103C10.6212 8.12153 10.6611 8.21792 10.7321 8.28898C10.8032 8.36005 10.8996 8.39998 11.0001 8.39998C11.1006 8.39998 11.197 8.36005 11.2681 8.28898C11.3391 8.21792 11.379 8.12153 11.379 8.02103V6.37892H13.0212C13.1217 6.37892 13.218 6.339 13.2891 6.26793C13.3602 6.19687 13.4001 6.10048 13.4001 5.99998C13.4001 5.89947 13.3602 5.80309 13.2891 5.73202C13.218 5.66095 13.1217 5.62103 13.0212 5.62103H11.379V3.97892C11.379 3.87842 11.3391 3.78203 11.2681 3.71097C11.197 3.6399 11.1006 3.59998 11.0001 3.59998C10.8996 3.59998 10.8032 3.6399 10.7321 3.71097C10.6611 3.78203 10.6212 3.87842 10.6212 3.97892V5.62103H8.97905C8.87854 5.62103 8.78216 5.66095 8.71109 5.73202C8.64002 5.80309 8.6001 5.89947 8.6001 5.99998C8.6001 6.10048 8.64002 6.19687 8.71109 6.26793C8.78216 6.339 8.87854 6.37892 8.97905 6.37892H10.6212V8.02103Z" fill="#9C9C9C"/>
</svg>
