<svg width="31" height="23" viewBox="0 0 31 23" fill="none" xmlns="http://www.w3.org/2000/svg">
<path d="M20.142 16.1287C19.01 15.6757 18.558 14.4308 18.558 14.4308C18.558 14.4308 18.048 14.7128 18.048 13.9208C18.048 13.1288 18.558 14.4308 19.068 11.3728C19.068 11.3728 20.481 10.9758 20.198 7.69275H19.858C19.858 7.69275 20.708 4.18275 19.858 2.99275C19.008 1.80475 18.67 1.01275 16.801 0.445751C14.932 -0.121249 15.613 -0.0082486 14.254 0.0497514C12.894 0.107751 11.762 0.842751 11.762 1.23975C11.762 1.23975 10.912 1.29575 10.574 1.63575C10.234 1.97575 9.668 3.55975 9.668 3.95575C9.668 4.35175 9.951 7.01575 10.234 7.58075L9.897 7.69475C9.613 10.9778 11.027 11.3748 11.027 11.3748C11.537 14.4328 12.047 13.1308 12.047 13.9228C12.047 14.7148 11.537 14.4328 11.537 14.4328C11.537 14.4328 11.085 15.6778 9.953 16.1308C8.821 16.5828 2.537 19.0168 2.026 19.5268C1.514 20.0368 1.572 22.4148 1.572 22.4148H28.519C28.519 22.4148 28.579 20.0378 28.067 19.5268C27.557 19.0168 21.272 16.5828 20.14 16.1308L20.142 16.1287ZM7.672 15.9568C7.572 15.7768 7.524 15.6468 7.524 15.6468C7.524 15.6468 7.092 15.8868 7.092 15.2148C7.092 14.5428 7.524 15.6468 7.956 13.0548C7.956 13.0548 9.156 12.7198 8.916 9.93675H8.626C8.626 9.93675 8.77 9.34675 8.864 8.60275C8.85979 8.27034 8.87214 7.93793 8.901 7.60675L8.939 7.18075C8.919 6.68875 8.832 6.24075 8.627 5.95475C7.907 4.94775 7.619 4.27475 6.037 3.79475C4.453 3.31475 5.027 3.41075 3.877 3.45975C2.725 3.50975 1.765 4.13175 1.765 4.46975C1.765 4.46975 1.045 4.51675 0.757 4.80475C0.487 5.07475 0.052 6.26675 0 6.68975V6.96975C0.048 7.62375 0.26 9.41975 0.47 9.84275L0.184 9.93875C-0.056 12.7208 1.144 13.0568 1.144 13.0568C1.574 15.6468 2.007 14.5448 2.007 15.2168C2.007 15.8888 1.575 15.6468 1.575 15.6468C1.575 15.6468 1.192 16.7048 0.232 17.0868L0 17.1788V22.4128H0.575C0.545 21.1348 0.652 19.4858 1.321 18.8188C1.678 18.4638 2.845 17.8788 7.674 15.9568H7.672ZM30.002 6.90075C29.962 6.52275 29.875 6.18575 29.71 5.95475C28.992 4.94675 28.703 4.27475 27.12 3.79475C25.537 3.31475 26.113 3.41075 24.96 3.45975C23.81 3.50975 22.85 4.13175 22.85 4.46975C22.85 4.46975 22.13 4.51675 21.842 4.80475C21.572 5.07675 21.132 6.27675 21.084 6.69475H21.117L21.197 7.60875C21.217 7.83875 21.219 8.04375 21.224 8.25275C21.314 8.91875 21.434 9.60275 21.554 9.84275L21.268 9.93775C21.028 12.7198 22.228 13.0558 22.228 13.0558C22.66 15.6458 23.091 14.5438 23.091 15.2158C23.091 15.8878 22.661 15.6458 22.661 15.6458C22.661 15.6458 22.607 15.7888 22.497 15.9858C27.267 17.8858 28.424 18.4658 28.777 18.8188C29.447 19.4868 29.551 21.1347 29.522 22.4137H30.002V17.1088L29.952 17.0868C28.992 16.7038 28.608 15.6468 28.608 15.6468C28.608 15.6468 28.175 15.8868 28.175 15.2168C28.175 14.5468 28.608 15.6468 29.039 13.0568C29.039 13.0568 29.843 12.8268 30.002 11.2168V9.98875C30.002 9.97075 30.002 9.95575 29.999 9.93875H29.709C29.709 9.93875 29.925 9.04875 30.002 8.07675V6.90075Z" fill="#9C9C9C"/>
</svg>
