<svg width="22" height="22" viewBox="0 0 22 22" fill="none" xmlns="http://www.w3.org/2000/svg">
<path d="M0 1.22222C0 0.898069 0.128766 0.587192 0.357971 0.357981C0.587176 0.128769 0.898044 0 1.22219 0H10.9997C11.3238 0 11.6347 0.128769 11.8639 0.357981C12.0931 0.587192 12.2219 0.898069 12.2219 1.22222C12.2219 1.54638 12.0931 1.85725 11.8639 2.08646C11.6347 2.31567 11.3238 2.44444 10.9997 2.44444H1.22219C0.898044 2.44444 0.587176 2.31567 0.357971 2.08646C0.128766 1.85725 0 1.54638 0 1.22222ZM0 11C0 10.6758 0.128766 10.365 0.357971 10.1358C0.587176 9.90655 0.898044 9.77778 1.22219 9.77778H10.9997C11.3238 9.77778 11.6347 9.90655 11.8639 10.1358C12.0931 10.365 12.2219 10.6758 12.2219 11C12.2219 11.3242 12.0931 11.635 11.8639 11.8642C11.6347 12.0935 11.3238 12.2222 10.9997 12.2222H1.22219C0.898044 12.2222 0.587176 12.0935 0.357971 11.8642C0.128766 11.635 0 11.3242 0 11ZM0 15.8889C0 15.5647 0.128766 15.2539 0.357971 15.0246C0.587176 14.7954 0.898044 14.6667 1.22219 14.6667H10.9997C11.3238 14.6667 11.6347 14.7954 11.8639 15.0246C12.0931 15.2539 12.2219 15.5647 12.2219 15.8889C12.2219 16.213 12.0931 16.5239 11.8639 16.7531C11.6347 16.9823 11.3238 17.1111 10.9997 17.1111H1.22219C0.898044 17.1111 0.587176 16.9823 0.357971 16.7531C0.128766 16.5239 0 16.213 0 15.8889ZM0 20.7778C0 20.4536 0.128766 20.1427 0.357971 19.9135C0.587176 19.6843 0.898044 19.5556 1.22219 19.5556H10.9997C11.3238 19.5556 11.6347 19.6843 11.8639 19.9135C12.0931 20.1427 12.2219 20.4536 12.2219 20.7778C12.2219 21.1019 12.0931 21.4128 11.8639 21.642C11.6347 21.8712 11.3238 22 10.9997 22H1.22219C0.898044 22 0.587176 21.8712 0.357971 21.642C0.128766 21.4128 0 21.1019 0 20.7778Z" fill="#9C9C9C"/>
<path fill-rule="evenodd" clip-rule="evenodd" d="M14.874 7.33336C15.1624 8.14918 15.7298 8.8368 16.4761 9.27469C17.2224 9.71257 18.0994 9.87251 18.9522 9.72624C19.805 9.57997 20.5787 9.13691 21.1364 8.47537C21.6941 7.81383 22 6.97641 22 6.11113C22 5.24586 21.6941 4.40844 21.1364 3.7469C20.5787 3.08536 19.805 2.6423 18.9522 2.49603C18.0994 2.34976 17.2224 2.5097 16.4761 2.94758C15.7298 3.38546 15.1624 4.07309 14.874 4.88891H1.22219C0.898044 4.88891 0.587176 5.01768 0.357971 5.24689C0.128766 5.4761 0 5.78698 0 6.11113C0 6.43529 0.128766 6.74616 0.357971 6.97538C0.587176 7.20459 0.898044 7.33336 1.22219 7.33336H14.874ZM19.555 6.11113C19.555 6.43529 19.4263 6.74616 19.1971 6.97538C18.9679 7.20459 18.657 7.33336 18.3328 7.33336C18.0087 7.33336 17.6978 7.20459 17.4686 6.97538C17.2394 6.74616 17.1106 6.43529 17.1106 6.11113C17.1106 5.78698 17.2394 5.4761 17.4686 5.24689C17.6978 5.01768 18.0087 4.88891 18.3328 4.88891C18.657 4.88891 18.9679 5.01768 19.1971 5.24689C19.4263 5.4761 19.555 5.78698 19.555 6.11113Z" fill="#9C9C9C"/>
</svg>
