<svg width="22" height="22" viewBox="0 0 22 22" fill="none" xmlns="http://www.w3.org/2000/svg">
<path d="M7.91587 1.47267C7.99335 1.51907 8.06093 1.58027 8.11475 1.65279C8.16856 1.7253 8.20757 1.80771 8.22953 1.8953C8.25149 1.9829 8.25598 2.07396 8.24274 2.16329C8.2295 2.25262 8.1988 2.33846 8.15237 2.41592L4.65162 8.25005H17.3484L13.8462 2.41592C13.7525 2.25948 13.7248 2.07221 13.7691 1.89532C13.8135 1.71842 13.9263 1.56639 14.0827 1.47267C14.2392 1.37895 14.4265 1.35122 14.6034 1.39557C14.7802 1.43992 14.9323 1.55273 15.026 1.70917L18.9516 8.25005H20.625C20.9897 8.25005 21.3394 8.39491 21.5973 8.65278C21.8551 8.91064 22 9.26038 22 9.62505V11C22 11.3647 21.8551 11.7145 21.5973 11.9723C21.3394 12.2302 20.9897 12.375 20.625 12.375V18.5625C20.625 19.4742 20.2628 20.3486 19.6182 20.9932C18.9735 21.6379 18.0992 22 17.1875 22H4.8125C3.90082 22 3.02648 21.6379 2.38182 20.9932C1.73716 20.3486 1.375 19.4742 1.375 18.5625V12.375C1.01033 12.375 0.660591 12.2302 0.402728 11.9723C0.144866 11.7145 0 11.3647 0 11V9.62505C0 9.26038 0.144866 8.91064 0.402728 8.65278C0.660591 8.39491 1.01033 8.25005 1.375 8.25005H3.04838L6.97125 1.70917C7.01764 1.6317 7.07885 1.56412 7.15136 1.5103C7.22388 1.45649 7.30629 1.41748 7.39388 1.39552C7.48147 1.37356 7.57254 1.36907 7.66187 1.38231C7.75119 1.39554 7.83842 1.42625 7.91587 1.47267ZM2.75 12.375V18.5625C2.75 19.1096 2.9673 19.6342 3.35409 20.021C3.74089 20.4077 4.26549 20.625 4.8125 20.625H17.1875C17.7345 20.625 18.2591 20.4077 18.6459 20.021C19.0327 19.6342 19.25 19.1096 19.25 18.5625V12.375H2.75ZM1.375 9.62505V11H20.625V9.62505H1.375ZM5.5 13.75C5.68234 13.75 5.8572 13.8225 5.98614 13.9514C6.11507 14.0803 6.1875 14.2552 6.1875 14.4375V18.5625C6.1875 18.7449 6.11507 18.9198 5.98614 19.0487C5.8572 19.1776 5.68234 19.25 5.5 19.25C5.31766 19.25 5.1428 19.1776 5.01386 19.0487C4.88493 18.9198 4.8125 18.7449 4.8125 18.5625V14.4375C4.8125 14.2552 4.88493 14.0803 5.01386 13.9514C5.1428 13.8225 5.31766 13.75 5.5 13.75ZM8.25 13.75C8.43234 13.75 8.6072 13.8225 8.73614 13.9514C8.86507 14.0803 8.9375 14.2552 8.9375 14.4375V18.5625C8.9375 18.7449 8.86507 18.9198 8.73614 19.0487C8.6072 19.1776 8.43234 19.25 8.25 19.25C8.06766 19.25 7.8928 19.1776 7.76386 19.0487C7.63493 18.9198 7.5625 18.7449 7.5625 18.5625V14.4375C7.5625 14.2552 7.63493 14.0803 7.76386 13.9514C7.8928 13.8225 8.06766 13.75 8.25 13.75ZM11 13.75C11.1823 13.75 11.3572 13.8225 11.4861 13.9514C11.6151 14.0803 11.6875 14.2552 11.6875 14.4375V18.5625C11.6875 18.7449 11.6151 18.9198 11.4861 19.0487C11.3572 19.1776 11.1823 19.25 11 19.25C10.8177 19.25 10.6428 19.1776 10.5139 19.0487C10.3849 18.9198 10.3125 18.7449 10.3125 18.5625V14.4375C10.3125 14.2552 10.3849 14.0803 10.5139 13.9514C10.6428 13.8225 10.8177 13.75 11 13.75ZM13.75 13.75C13.9323 13.75 14.1072 13.8225 14.2361 13.9514C14.3651 14.0803 14.4375 14.2552 14.4375 14.4375V18.5625C14.4375 18.7449 14.3651 18.9198 14.2361 19.0487C14.1072 19.1776 13.9323 19.25 13.75 19.25C13.5677 19.25 13.3928 19.1776 13.2639 19.0487C13.1349 18.9198 13.0625 18.7449 13.0625 18.5625V14.4375C13.0625 14.2552 13.1349 14.0803 13.2639 13.9514C13.3928 13.8225 13.5677 13.75 13.75 13.75ZM16.5 13.75C16.6823 13.75 16.8572 13.8225 16.9861 13.9514C17.1151 14.0803 17.1875 14.2552 17.1875 14.4375V18.5625C17.1875 18.7449 17.1151 18.9198 16.9861 19.0487C16.8572 19.1776 16.6823 19.25 16.5 19.25C16.3177 19.25 16.1428 19.1776 16.0139 19.0487C15.8849 18.9198 15.8125 18.7449 15.8125 18.5625V14.4375C15.8125 14.2552 15.8849 14.0803 16.0139 13.9514C16.1428 13.8225 16.3177 13.75 16.5 13.75Z" fill="#9C9C9C"/>
</svg>
