<svg width="22" height="22" viewBox="0 0 22 22" fill="none" xmlns="http://www.w3.org/2000/svg">
<path fill-rule="evenodd" clip-rule="evenodd" d="M18.8571 22H4C2.93913 22 1.92172 21.5569 1.17157 20.7682C0.421427 19.9795 0 18.9098 0 17.7944V2.10533C0 0.823234 1.20686 0.00976017 2.26857 0.396671C2.42057 0.451944 2.56914 0.532451 2.71086 0.639392L2.91086 0.78959C3.39732 1.1525 3.97929 1.34695 4.57577 1.34587C5.17225 1.3448 5.75358 1.14825 6.23886 0.783582C6.92004 0.273886 7.73535 0 8.57143 0C9.40751 0 10.2228 0.273886 10.904 0.783582C11.3893 1.14825 11.9706 1.3448 12.5671 1.34587C13.1636 1.34695 13.7455 1.1525 14.232 0.78959L14.432 0.639392C15.5669 -0.213735 17.1429 0.639392 17.1429 2.10533V11.1857H21.1429C21.3702 11.1857 21.5882 11.2807 21.7489 11.4497C21.9097 11.6187 22 11.8479 22 12.0869V18.6956C22 19.572 21.6689 20.4125 21.0795 21.0322C20.4901 21.6519 19.6907 22 18.8571 22ZM17.4286 12.9881V18.6956C17.4286 19.094 17.5791 19.476 17.847 19.7577C18.1149 20.0394 18.4783 20.1976 18.8571 20.1976C19.236 20.1976 19.5994 20.0394 19.8673 19.7577C20.1352 19.476 20.2857 19.094 20.2857 18.6956V12.9881H17.4286ZM12.5714 7.88136C12.5714 7.64235 12.4811 7.41312 12.3204 7.24412C12.1596 7.07511 11.9416 6.98017 11.7143 6.98017H4.85714C4.62981 6.98017 4.4118 7.07511 4.25105 7.24412C4.09031 7.41312 4 7.64235 4 7.88136C4 8.12037 4.09031 8.34959 4.25105 8.51859C4.4118 8.6876 4.62981 8.78255 4.85714 8.78255H11.7143C11.9416 8.78255 12.1596 8.6876 12.3204 8.51859C12.4811 8.34959 12.5714 8.12037 12.5714 7.88136ZM11.4286 11.4861C11.4286 11.2471 11.3383 11.0179 11.1775 10.8489C11.0168 10.6799 10.7988 10.5849 10.5714 10.5849H4.85714C4.62981 10.5849 4.4118 10.6799 4.25105 10.8489C4.09031 11.0179 4 11.2471 4 11.4861C4 11.7251 4.09031 11.9543 4.25105 12.1234C4.4118 12.2924 4.62981 12.3873 4.85714 12.3873H10.5714C10.7988 12.3873 11.0168 12.2924 11.1775 12.1234C11.3383 11.9543 11.4286 11.7251 11.4286 11.4861ZM11.7143 14.1897C11.9416 14.1897 12.1596 14.2846 12.3204 14.4536C12.4811 14.6226 12.5714 14.8519 12.5714 15.0909C12.5714 15.3299 12.4811 15.5591 12.3204 15.7281C12.1596 15.8971 11.9416 15.9921 11.7143 15.9921H4.85714C4.62981 15.9921 4.4118 15.8971 4.25105 15.7281C4.09031 15.5591 4 15.3299 4 15.0909C4 14.8519 4.09031 14.6226 4.25105 14.4536C4.4118 14.2846 4.62981 14.1897 4.85714 14.1897H11.7143Z" fill="#9C9C9C"/>
</svg>
