<svg width="30" height="22" viewBox="0 0 30 22" fill="none" xmlns="http://www.w3.org/2000/svg">
<path d="M29.9396 10.66C28.7634 7.61765 26.7216 4.98662 24.0664 3.09209C21.4112 1.19756 18.2591 0.122573 14.9996 0C11.7401 0.122573 8.58796 1.19756 5.93278 3.09209C3.27759 4.98662 1.23574 7.61765 0.0595746 10.66C-0.0198582 10.8797 -0.0198582 11.1203 0.0595746 11.34C1.23574 14.3824 3.27759 17.0134 5.93278 18.9079C8.58796 20.8024 11.7401 21.8774 14.9996 22C18.2591 21.8774 21.4112 20.8024 24.0664 18.9079C26.7216 17.0134 28.7634 14.3824 29.9396 11.34C30.019 11.1203 30.019 10.8797 29.9396 10.66ZM14.9996 20C9.69957 20 4.09957 16.07 2.06957 11C4.09957 5.93 9.69957 2 14.9996 2C20.2996 2 25.8996 5.93 27.9296 11C25.8996 16.07 20.2996 20 14.9996 20Z" fill="#9C9C9C"/>
<path d="M15 5C13.8133 5 12.6533 5.35189 11.6666 6.01118C10.6799 6.67047 9.91085 7.60754 9.45673 8.7039C9.0026 9.80026 8.88378 11.0067 9.11529 12.1705C9.3468 13.3344 9.91825 14.4035 10.7574 15.2426C11.5965 16.0818 12.6656 16.6532 13.8295 16.8847C14.9933 17.1162 16.1997 16.9974 17.2961 16.5433C18.3925 16.0892 19.3295 15.3201 19.9888 14.3334C20.6481 13.3467 21 12.1867 21 11C21 9.4087 20.3679 7.88258 19.2426 6.75736C18.1174 5.63214 16.5913 5 15 5ZM15 15C14.2089 15 13.4355 14.7654 12.7777 14.3259C12.1199 13.8864 11.6072 13.2616 11.3045 12.5307C11.0017 11.7998 10.9225 10.9956 11.0769 10.2196C11.2312 9.44371 11.6122 8.73098 12.1716 8.17157C12.731 7.61216 13.4437 7.2312 14.2196 7.07686C14.9956 6.92252 15.7998 7.00173 16.5307 7.30448C17.2616 7.60723 17.8864 8.11992 18.3259 8.77772C18.7654 9.43552 19 10.2089 19 11C19 12.0609 18.5786 13.0783 17.8284 13.8284C17.0783 14.5786 16.0609 15 15 15Z" fill="#9C9C9C"/>
</svg>
