<svg width="25" height="25" viewBox="0 0 25 25" fill="none" xmlns="http://www.w3.org/2000/svg">
<path d="M16.4062 0L25 4.33284V13.9956L23.4375 13.2078V6.09306L17.1875 9.24421V12.42L15.625 13.2078V9.24421L9.375 6.09306V8.88725L7.8125 8.09946V4.33284L16.4062 0ZM16.4062 7.87789L18.5669 6.78237L12.915 3.52043L10.3394 4.82521L16.4062 7.87789ZM20.2515 5.94535L22.4731 4.82521L16.4062 1.76022L14.5874 2.68341L20.2515 5.94535ZM14.0625 13.9956L12.5 14.7834V14.771L7.8125 17.1344V22.7351L12.5 20.3594V22.132L7.03125 24.8892L0 21.3319V13.0108L7.03125 9.46578L14.0625 13.0108V13.9956ZM6.25 22.7351V17.1344L1.5625 14.771V20.3594L6.25 22.7351ZM7.03125 15.7681L11.5356 13.5032L7.03125 11.226L2.52686 13.5032L7.03125 15.7681ZM14.0625 15.7558L19.5312 12.9985L25 15.7558V22.2427L19.5312 25L14.0625 22.2427V15.7558ZM18.75 22.8459V19.0916L15.625 17.516V21.2703L18.75 22.8459ZM23.4375 21.2703V17.516L20.3125 19.0916V22.8459L23.4375 21.2703ZM19.5312 17.7253L22.4731 16.2358L19.5312 14.7587L16.5894 16.2358L19.5312 17.7253Z" fill="#9C9C9C"/>
</svg>
