<svg width="22" height="22" viewBox="0 0 22 22" fill="none" xmlns="http://www.w3.org/2000/svg">
<rect width="22" height="22" rx="5" fill="#9C9C9C"/>
<path d="M7.19701 9.39266H6.2028C6.17445 9.22962 6.12216 9.08518 6.04596 8.95936C5.96975 8.83176 5.87494 8.72365 5.76152 8.63504C5.6481 8.54643 5.51873 8.47997 5.37341 8.43567C5.22986 8.38959 5.07479 8.36655 4.9082 8.36655C4.61224 8.36655 4.34995 8.44099 4.12134 8.58985C3.89272 8.73694 3.71373 8.95315 3.58436 9.23848C3.45499 9.52203 3.3903 9.8685 3.3903 10.2779C3.3903 10.6944 3.45499 11.0453 3.58436 11.3306C3.7155 11.6141 3.89449 11.8286 4.12134 11.9739C4.34995 12.1174 4.61135 12.1892 4.90554 12.1892C5.06858 12.1892 5.221 12.1679 5.36277 12.1254C5.50632 12.0811 5.63481 12.0164 5.74823 11.9314C5.86342 11.8463 5.96001 11.7417 6.03798 11.6177C6.11773 11.4936 6.17267 11.3518 6.2028 11.1923L7.19701 11.1977C7.15979 11.4564 7.07916 11.6992 6.9551 11.926C6.83282 12.1529 6.67244 12.3531 6.47395 12.5268C6.27546 12.6987 6.0433 12.8334 5.77747 12.9309C5.51164 13.0266 5.21656 13.0744 4.89225 13.0744C4.41375 13.0744 3.98665 12.9637 3.61094 12.7421C3.23523 12.5206 2.93927 12.2007 2.72306 11.7825C2.50685 11.3642 2.39875 10.8627 2.39875 10.2779C2.39875 9.69128 2.50774 9.18974 2.72572 8.77327C2.9437 8.35503 3.24055 8.03515 3.61626 7.81362C3.99197 7.5921 4.4173 7.48133 4.89225 7.48133C5.1953 7.48133 5.47708 7.52387 5.73759 7.60893C5.99811 7.694 6.23027 7.81894 6.43407 7.98375C6.63788 8.1468 6.80535 8.34706 6.9365 8.58453C7.06941 8.82024 7.15625 9.08961 7.19701 9.39266ZM8.17503 7.55577H9.38191L10.9982 11.5007H11.062L12.6782 7.55577H13.8851V13H12.9387V9.25975H12.8882L11.3836 12.9841H10.6765L9.1719 9.25177H9.12139V13H8.17503V7.55577ZM17.9926 9.0524C17.9678 8.82024 17.8633 8.63947 17.6789 8.5101C17.4964 8.38073 17.2589 8.31604 16.9665 8.31604C16.7609 8.31604 16.5846 8.34706 16.4375 8.40909C16.2904 8.47111 16.1779 8.55529 16.0999 8.66163C16.0219 8.76796 15.9821 8.88935 15.9803 9.02582C15.9803 9.13924 16.006 9.23759 16.0574 9.32089C16.1105 9.40418 16.1823 9.47507 16.2727 9.53355C16.3631 9.59026 16.4632 9.63811 16.5731 9.6771C16.683 9.71609 16.7937 9.74888 16.9054 9.77546L17.4158 9.90306C17.6213 9.95091 17.8189 10.0156 18.0086 10.0971C18.2 10.1786 18.371 10.2814 18.5216 10.4055C18.674 10.5295 18.7946 10.6793 18.8832 10.8547C18.9718 11.0302 19.0161 11.2358 19.0161 11.4715C19.0161 11.7905 18.9346 12.0714 18.7715 12.3142C18.6085 12.5552 18.3728 12.7439 18.0644 12.8804C17.7578 13.0151 17.3865 13.0824 16.9506 13.0824C16.527 13.0824 16.1593 13.0168 15.8474 12.8857C15.5372 12.7545 15.2944 12.5631 15.119 12.3115C14.9453 12.0598 14.8514 11.7532 14.8372 11.3917H15.8075C15.8217 11.5813 15.8801 11.7391 15.9829 11.8649C16.0857 11.9907 16.2195 12.0847 16.3843 12.1467C16.5509 12.2087 16.737 12.2397 16.9426 12.2397C17.157 12.2397 17.3449 12.2078 17.5062 12.144C17.6692 12.0784 17.7968 11.9881 17.889 11.8729C17.9811 11.7559 18.0281 11.6194 18.0298 11.4635C18.0281 11.3217 17.9864 11.2047 17.9049 11.1126C17.8234 11.0187 17.7091 10.9407 17.562 10.8787C17.4167 10.8149 17.2465 10.7582 17.0516 10.7085L16.4322 10.549C15.9838 10.4338 15.6294 10.2593 15.3689 10.0253C15.1101 9.78964 14.9808 9.47684 14.9808 9.08696C14.9808 8.76619 15.0676 8.48529 15.2413 8.24427C15.4167 8.00325 15.6551 7.81628 15.9564 7.68336C16.2576 7.54868 16.5988 7.48133 16.9798 7.48133C17.3661 7.48133 17.7046 7.54868 17.9953 7.68336C18.2877 7.81628 18.5172 8.00148 18.6838 8.23895C18.8504 8.47466 18.9363 8.74581 18.9416 9.0524H17.9926Z" fill="white"/>
</svg>
