<svg width="24" height="22" viewBox="0 0 24 22" fill="none" xmlns="http://www.w3.org/2000/svg">
<path d="M15.36 5.5L16.8 7.15L8.64 16.5L7.2 14.85L15.36 5.5ZM2.4 0H21.6C22.932 0 24 1.22375 24 2.75V8.25C23.3635 8.25 22.753 8.53973 22.3029 9.05546C21.8529 9.57118 21.6 10.2707 21.6 11C21.6 11.7293 21.8529 12.4288 22.3029 12.9445C22.753 13.4603 23.3635 13.75 24 13.75V19.25C24 20.7763 22.932 22 21.6 22H2.4C1.76348 22 1.15303 21.7103 0.702944 21.1945C0.252856 20.6788 0 19.9793 0 19.25V13.75C1.332 13.75 2.4 12.5263 2.4 11C2.4 10.2707 2.14714 9.57118 1.69706 9.05546C1.24697 8.53973 0.63652 8.25 0 8.25V2.75C0 2.02065 0.252856 1.32118 0.702944 0.805456C1.15303 0.289731 1.76348 0 2.4 0ZM2.4 2.75V6.2425C3.12921 6.7243 3.73483 7.41766 4.15591 8.25282C4.57698 9.08798 4.79868 10.0355 4.79868 11C4.79868 11.9645 4.57698 12.912 4.15591 13.7472C3.73483 14.5823 3.12921 15.2757 2.4 15.7575V19.25H21.6V15.7575C20.8708 15.2757 20.2652 14.5823 19.8441 13.7472C19.423 12.912 19.2013 11.9645 19.2013 11C19.2013 10.0355 19.423 9.08798 19.8441 8.25282C20.2652 7.41766 20.8708 6.7243 21.6 6.2425V2.75H2.4ZM9 5.5C9.996 5.5 10.8 6.42125 10.8 7.5625C10.8 8.70375 9.996 9.625 9 9.625C8.004 9.625 7.2 8.70375 7.2 7.5625C7.2 6.42125 8.004 5.5 9 5.5ZM15 12.375C15.996 12.375 16.8 13.2963 16.8 14.4375C16.8 15.5787 15.996 16.5 15 16.5C14.004 16.5 13.2 15.5787 13.2 14.4375C13.2 13.2963 14.004 12.375 15 12.375Z" fill="#9C9C9C"/>
</svg>
